# xmcd
#
# Track frame offsets:
#	150
#	20382
#	35337
#	54925
#	69855
#	83587
#	96607
#	112952
#	128737
#	146302
#	163055
#
# Disc length: 2400 seconds
#
# Revision: 1
# Processed by: cddbd v1.5.2PL0 Copyright (c) Steve Scherf et al.
# Submitted via: audiograbber 1.82.01
#
DISCID=83095e0b
DTITLE=Shane Keister - Country Classics Instrumentally Yours
DYEAR=1900
DGENRE=
TTITLE0=Lost In The Fifties Tonight
TTITLE1=The Gambler
TTITLE2=Grandpa
TTITLE3=On The Other Hand
TTITLE4=Mamas Don't Let Your Babies Grow Up To Be Cowboys
TTITLE5=9 To 5
TTITLE6=To All Girls I've Loved Before
TTITLE7=To All The Girls I've Loved Before
TTITLE8=Don't Make My Brown Eyes Blue
TTITLE9=You Needed Me
TTITLE10=Always On My Mind
EXTD=
EXTT0=
EXTT1=
EXTT2=
EXTT3=
EXTT4=
EXTT5=
EXTT6=
EXTT7=
EXTT8=
EXTT9=
EXTT10=
PLAYORDER=
